<svg width="360" height="61" viewBox="0 0 360 61" fill="none" xmlns="http://www.w3.org/2000/svg">
<g clip-path="url(#clip0)">
<path d="M79.1707 17.8585H89.0429V59.6591H96.3708V17.8585H106.141V11.3494H79.1707V17.8585Z" fill="#040000"/>
<path d="M115.508 59.6591H137.39V52.7431H122.836V37.284H135.456V30.775H122.836V17.8585H137.39V11.3494H115.508V59.6591Z" fill="#040000"/>
<path d="M159.069 10.8402C157.532 10.7282 155.988 10.9345 154.535 11.4464C153.081 11.9582 151.749 12.7645 150.621 13.8148C149.494 14.865 148.596 16.1366 147.983 17.5498C147.37 18.963 147.056 20.4875 147.06 22.0277V48.6743C146.976 50.2543 147.237 51.8336 147.826 53.3022C148.415 54.7708 149.318 56.0934 150.471 57.1778C151.624 58.2622 153 59.0823 154.502 59.581C156.005 60.0797 157.598 60.2449 159.171 60.0652C162.204 60.1199 165.136 58.9749 167.328 56.8795C169.52 54.7841 170.795 51.9081 170.875 48.8777V45.8266H163.548V48.2675C163.605 48.8971 163.529 49.5318 163.323 50.1297C163.118 50.7277 162.788 51.2753 162.355 51.7366C161.922 52.1978 161.397 52.5622 160.813 52.8057C160.229 53.0492 159.6 53.1663 158.968 53.1493C155.609 53.1493 154.489 50.9118 154.489 48.1658V23.4516C154.489 20.197 155.304 17.8578 158.968 17.8578C159.605 17.8553 160.236 17.9857 160.82 18.2407C161.404 18.4957 161.928 18.8697 162.359 19.3388C162.79 19.8078 163.118 20.3616 163.323 20.9647C163.528 21.5678 163.604 22.207 163.548 22.8413V25.1805H170.875V22.4345C170.919 20.8827 170.642 19.3386 170.061 17.8987C169.481 16.4588 168.609 15.1541 167.501 14.0659C166.393 12.9778 165.073 12.1298 163.622 11.5747C162.171 11.0197 160.621 10.7696 159.069 10.8402Z" fill="#040000"/>
<path d="M196.935 30.775H187.877V11.3494H180.549V59.6591H187.877V36.8772H196.935V59.6591H204.263V11.3494H196.935V30.775Z" fill="#040000"/>
<path d="M235.906 10.8405C234.373 10.7277 232.834 10.9343 231.386 11.4471C229.937 11.9599 228.611 12.7678 227.492 13.8196C226.372 14.8714 225.484 16.1441 224.882 17.5571C224.281 18.9701 223.98 20.4926 223.998 22.028V48.6746C223.914 50.2546 224.175 51.8339 224.764 53.3025C225.353 54.7711 226.256 56.0937 227.409 57.1781C228.562 58.2625 229.938 59.0826 231.44 59.5813C232.943 60.08 234.536 60.2452 236.109 60.0655C239.125 60.0933 242.031 58.9362 244.201 56.8437C246.371 54.7512 247.632 51.8906 247.712 48.878V45.8269H240.384V48.2678C240.459 48.9008 240.395 49.5426 240.195 50.1482C239.996 50.7538 239.667 51.3086 239.231 51.7737C238.794 52.2387 238.262 52.6028 237.67 52.8405C237.078 53.0782 236.441 53.1837 235.804 53.1496C232.445 53.1496 231.326 50.9121 231.326 48.1661V23.4519C231.326 20.1973 232.242 17.8581 235.906 17.8581C236.534 17.8696 237.154 18.0103 237.726 18.2715C238.298 18.5327 238.81 18.9087 239.23 19.3763C239.65 19.8438 239.969 20.3927 240.168 20.9889C240.366 21.5851 240.44 22.2158 240.384 22.8417V25.1809H247.712V22.4348C247.755 20.8831 247.478 19.339 246.898 17.8991C246.317 16.4592 245.446 15.1544 244.338 14.0663C243.23 12.9782 241.909 12.1301 240.458 11.5751C239.007 11.02 237.458 10.77 235.906 10.8405Z" fill="#040000"/>
<path d="M264.712 11.3494L253.72 59.6591H261.048L263.49 48.1664H272.854L275.398 59.6591H282.726L271.225 11.3494H264.712ZM264.712 41.8608L267.968 25.9948L271.531 41.3522L264.712 41.8608Z" fill="#040000"/>
<path d="M307.253 36.7755L296.872 11.3494H290.663V59.6591H297.89V33.1142L307.66 56.0994L316.515 33.1142V59.6591H323.741V11.3494H317.431L307.253 36.7755Z" fill="#040000"/>
<path d="M344.609 10.8412H333.719V59.6594H341.047V38.7082H344.609C346.467 38.7624 348.318 38.4502 350.055 37.7894C351.792 37.1286 353.382 36.1322 354.733 34.8571C356.085 33.5819 357.172 32.0532 357.932 30.3581C358.692 28.663 359.111 26.8348 359.163 24.9781C359.15 23.0909 358.762 21.2251 358.021 19.4892C357.28 17.7533 356.201 16.1819 354.846 14.8665C353.492 13.5511 351.89 12.5178 350.132 11.8267C348.375 11.1357 346.497 10.8007 344.609 10.8412ZM344.609 32.1991H341.047V17.8588H344.609C345.572 17.8317 346.53 17.9944 347.429 18.3376C348.329 18.6808 349.152 19.1977 349.851 19.8589C350.551 20.52 351.113 21.3125 351.506 22.1908C351.899 23.0692 352.114 24.0164 352.141 24.9781C352.087 26.9295 351.267 28.7813 349.858 30.1328C348.448 31.4843 346.562 32.2266 344.609 32.1991Z" fill="#040000"/>
<path d="M0.0957031 59.6584H69.3032L57.8025 40.0294C57.646 39.7741 57.4179 39.5705 57.1464 39.4439C56.8749 39.3173 56.5722 39.2733 56.2759 39.3174C50.9836 40.0294 19.2295 43.7924 0.0957031 59.6584Z" fill="#989898"/>
<path d="M0.0957031 59.6584C16.9333 49.5173 34.8561 41.2956 53.528 35.1475C53.6656 35.117 53.7944 35.055 53.9042 34.9666C54.014 34.8781 54.1018 34.7655 54.1609 34.6376C54.22 34.5096 54.2488 34.3698 54.2449 34.2289C54.241 34.088 54.2046 33.9499 54.1386 33.8254L34.6994 0.669678L0.0957031 59.6584Z" fill="#202121"/>
</g>
<defs>
<clipPath id="clip0">
<rect x="0.0957031" y="0.669678" width="359.065" height="59.3955" fill="white"/>
</clipPath>
</defs>
</svg>
